<?xml version="1.0" encoding="utf-8"?>
<!-- Generator: Adobe Illustrator 15.0.0, SVG Export Plug-In . SVG Version: 6.00 Build 0)  -->
<!DOCTYPE svg PUBLIC "-//W3C//DTD SVG 1.1//EN" "http://www.w3.org/Graphics/SVG/1.1/DTD/svg11.dtd">
<svg version="1.1" id="Layer_1" xmlns="http://www.w3.org/2000/svg" xmlns:xlink="http://www.w3.org/1999/xlink" x="0px" y="0px"
	 width="176px" height="208px" viewBox="0 0 176 208" enable-background="new 0 0 176 208" xml:space="preserve">
<path fill="#00BF09" d="M74.986,52.695c1.259,1.248,0,2.808-1.238,1.56c-0.945-1.248-9.7-10.939-27.815-10.939
	c-23.439,0-40.628,19.374-40.628,45.62c0,35.635,21.567,62.817,42.803,73.134c1.569,0.936,0.321,2.504-0.928,1.87
	C28.12,154.883,0,134.253,0,89.88c0-26.256,18.438-50.006,45.62-50.006C66.554,39.875,74.052,51.437,74.986,52.695z
	 M159.675,146.762c0.623-1.258,1.872,0,1.568,0.936c-2.817,5.616-20.951,45.308-71.876,45.308
	c-54.686,0-78.437-48.125-79.686-52.183c-0.623-1.257,0.937-1.568,1.249-0.633c0.623,1.258,25.935,44.694,74.06,44.694
	C132.794,184.884,153.737,156.13,159.675,146.762z M69.674,12.691c1.568-1.257,2.506,1.248,1.568,2.185
	c-1.256,0.623-3.432,1.872-4.688,2.505c11.875,17.179,16.253,40.93,17.18,44.06c0.321,1.872-1.551,1.872-1.862,0.625
	c-1.57-5.938-10.004-27.816-25.009-43.436c-1.249-1.248-0.624-2.505,0.625-2.505C61.872,16.124,66.865,14.251,69.674,12.691z
	 M101.243,164.877c4.681-2.496,10.307-4.056,17.812-4.056c27.495,0,48.429-38.122,48.429-67.509
	c0-48.125-22.504-65.002-46.253-65.002c-22.806,0-31.864,19.382-33.433,22.503c-0.937,2.194-3.12,0.624-2.184-1.249
	c0.633-1.872,10.314-25.623,37.185-25.623c19.686,0,50.925,15.932,50.925,65.314c0,38.434-25.613,75.005-54.99,75.005
	c-10.627,0-12.188,1.873-16.564,4.056c-4.056,1.884-9.37,5.314-19.686,5.314c-4.688,0-8.433-0.936-9.37-1.561
	c-1.247-0.634-0.312-2.506,0.938-1.87c1.247,0.935,4.065,0.935,8.433,0.935C90.305,171.136,96.855,167.382,101.243,164.877z"/>
<text transform="matrix(1 0 0 1 21 105)" fill="#00BF09" font-family="'EurostileRegular'" font-size="30">CHARITIES</text>
</svg>
