<?xml version="1.0" encoding="utf-8"?>
<!-- Generator: Adobe Illustrator 15.0.0, SVG Export Plug-In . SVG Version: 6.00 Build 0)  -->
<!DOCTYPE svg PUBLIC "-//W3C//DTD SVG 1.1//EN" "http://www.w3.org/Graphics/SVG/1.1/DTD/svg11.dtd">
<svg version="1.1" id="Layer_1" xmlns="http://www.w3.org/2000/svg" xmlns:xlink="http://www.w3.org/1999/xlink" x="0px" y="0px"
	 width="176px" height="208px" viewBox="0 0 176 208" enable-background="new 0 0 176 208" xml:space="preserve">
<text transform="matrix(1 0 0 1 34.6924 88.6665)" fill="#538ADB" font-family="'EurostileRegular'" font-size="30">DONATE</text>
<path fill="#538ADB" d="M146.967,101.852c2.707-1.087,11.371-5.958,11.371-22.214c0-27.62-42.782-63.365-103.437-63.365
	c-21.668,0-39.534,13.002-39.534,29.788c0,9.204,7.035,16.785,8.119,17.872c0.546,1.087-0.538,4.334-3.247,2.175
	C17.528,63.933,9.407,56.888,9.407,43.35c0-14.626,14.625-39.543,56.321-39.543c51.452,0,103.444,32.498,103.444,74.752
	c0,18.959-15.162,26.002-21.122,26.538C145.344,105.635,144.795,102.387,146.967,101.852z M27.276,76.391
	c1.087,1.631,3.791,4.334,4.337,7.588c0.54,3.783-1.084,56.329-1.084,57.416c0,2.16-3.253,2.702-3.793,0
	c0-3.797-2.167-49.834-3.25-63.373C22.948,75.312,25.655,74.225,27.276,76.391z M37.57,154.932
	c18.953,2.159,86.106,35.744,94.234,41.702c2.16,1.623,2.16,4.871-1.63,3.798c-16.245-3.798-81.78-33.05-95.854-42.798
	C32.697,157.091,32.697,153.846,37.57,154.932z M150.761,120.812c0,8.117-2.71,74.198-2.71,76.91c0,2.71-2.707,2.167-3.256,0
	c-2.702-20.047-3.785-69.872-3.785-82.331c0-4.335,2.166-3.246,3.255-2.711C145.884,114.304,148.591,117.014,150.761,120.812z"/>
</svg>
